<svg xmlns="http://www.w3.org/2000/svg" xmlns:xlink="http://www.w3.org/1999/xlink" preserveAspectRatio="xMidYMid" width="144" height="144" viewBox="0 0 144 144">
  <defs>
    <style>
      .cls-1 {
        fill: #f55e2d;
      }

      .cls-2 {
        fill: #fff;
        fill-rule: evenodd;
      }
    </style>
  </defs>
  <g>
    <circle cx="72" cy="72" r="72" class="cls-1"/>
    <path d="M67.214,63.681 C66.053,51.455 64.892,39.226 63.730,27.000 C68.955,27.000 74.182,27.000 79.406,27.000 C78.536,39.226 77.665,51.455 76.794,63.681 C76.788,63.677 76.791,63.675 76.790,63.681 C86.767,56.560 96.748,49.437 106.725,42.315 C109.338,46.853 111.951,51.392 114.564,55.929 C103.570,61.286 92.573,66.644 81.580,72.001 C81.572,72.012 81.585,72.015 81.579,72.002 C92.718,77.107 103.860,82.213 114.998,87.318 C112.386,91.855 109.773,96.394 107.160,100.932 C97.037,94.063 86.912,87.191 76.789,80.322 C76.793,80.325 76.798,80.328 76.794,80.319 C77.665,92.545 78.536,104.775 79.406,117.001 C74.182,117.001 68.955,117.001 63.730,117.001 C64.892,104.775 66.053,92.545 67.214,80.319 C67.220,80.339 67.218,80.327 67.208,80.321 C57.231,87.443 47.250,94.566 37.273,101.687 C34.660,97.150 32.047,92.611 29.434,88.073 C40.428,82.716 51.425,77.358 62.418,72.001 M67.208,63.683 C57.086,56.814 46.960,49.942 36.837,43.073 C34.225,47.611 31.612,52.150 28.999,56.688 C40.138,61.792 51.280,66.889 62.418,71.994 " class="cls-2"/>
  </g>
</svg>
