<svg xmlns="http://www.w3.org/2000/svg" xmlns:xlink="http://www.w3.org/1999/xlink" preserveAspectRatio="xMidYMid" width="368.5" height="116.496" viewBox="0 0 455.5 144">
  <defs>
    <style>
      .cls-1, .cls-3 {
        fill: #f55e2d;
      }

      .cls-2 {
        fill: #fff;
      }

      .cls-2, .cls-3, .cls-4 {
        fill-rule: evenodd;
      }

      .cls-4 {
        fill: #434a54;
        stroke: #fff;
        stroke-width: 1px;
        filter: url(#color-overlay-1);
      }
    </style>

    <filter id="color-overlay-1" filterUnits="userSpaceOnUse">
      <feFlood flood-color="#f55e2d"/>
      <feComposite operator="in" in2="SourceGraphic"/>
      <feBlend in2="SourceGraphic" result="solidFill"/>
    </filter>
  </defs>
  <g>
    <g>
      <circle cx="72" cy="72" r="72" class="cls-1"/>
      <path d="M67.214,63.681 C66.053,51.455 64.892,39.226 63.730,27.000 C68.955,27.000 74.182,27.000 79.406,27.000 C78.536,39.226 77.665,51.455 76.794,63.681 C76.788,63.677 76.791,63.675 76.790,63.681 C86.767,56.560 96.748,49.437 106.725,42.315 C109.338,46.853 111.951,51.392 114.564,55.929 C103.570,61.286 92.573,66.644 81.580,72.001 C81.572,72.012 81.585,72.015 81.579,72.002 C92.718,77.107 103.860,82.213 114.998,87.318 C112.386,91.855 109.773,96.394 107.160,100.932 C97.037,94.063 86.912,87.191 76.789,80.322 C76.793,80.325 76.798,80.328 76.794,80.319 C77.665,92.545 78.536,104.775 79.406,117.001 C74.182,117.001 68.955,117.001 63.730,117.001 C64.892,104.775 66.053,92.545 67.214,80.319 C67.220,80.339 67.218,80.327 67.208,80.321 C57.231,87.443 47.250,94.566 37.273,101.687 C34.660,97.150 32.047,92.611 29.434,88.073 C40.428,82.716 51.425,77.358 62.418,72.001 M67.208,63.683 C57.086,56.814 46.960,49.942 36.837,43.073 C34.225,47.611 31.612,52.150 28.999,56.688 C40.138,61.792 51.280,66.889 62.418,71.994 " class="cls-2"/>
    </g>
    <path d="M404.485,70.102 C412.746,71.887 416.558,74.879 416.558,80.496 L416.558,80.601 C416.558,86.900 411.263,90.994 403.903,90.994 C398.026,90.994 393.207,89.052 388.759,85.115 L391.354,82.070 C395.219,85.535 398.926,87.267 404.062,87.267 C409.039,87.267 412.322,84.643 412.322,81.021 L412.322,80.916 C412.322,77.503 410.469,75.561 402.685,73.934 C394.160,72.097 390.242,69.367 390.242,63.330 L390.242,63.225 C390.242,57.451 395.378,53.199 402.420,53.199 C407.821,53.199 411.687,54.721 415.446,57.713 L413.010,60.915 C409.569,58.133 406.127,56.926 402.315,56.926 C397.496,56.926 394.425,59.550 394.425,62.858 L394.425,62.963 C394.425,66.427 396.331,68.369 404.485,70.102 ZM374.833,53.724 L379.016,53.724 L379.016,90.469 L374.833,90.469 L374.833,53.724 ZM358.466,60.705 L344.964,80.391 L344.752,80.391 L331.250,60.758 L331.250,90.469 L327.173,90.469 L327.173,53.724 L331.409,53.724 L344.911,73.776 L358.413,53.724 L362.649,53.724 L362.649,90.469 L358.466,90.469 L358.466,60.705 ZM290.369,53.724 L317.161,53.724 L317.161,57.503 L294.552,57.503 L294.552,70.049 L314.778,70.049 L314.778,73.829 L294.552,73.829 L294.552,86.690 L317.426,86.690 L317.426,90.469 L290.369,90.469 L290.369,53.724 ZM268.761,90.469 L264.525,90.469 L264.525,57.556 L252.082,57.556 L252.082,53.724 L281.204,53.724 L281.204,57.556 L268.761,57.556 L268.761,90.469 ZM240.641,90.469 L229.892,76.191 L229.786,76.191 L219.302,76.191 L219.302,90.469 L215.119,90.469 L215.119,53.724 L231.057,53.724 C235.611,53.724 239.264,55.088 241.594,57.398 C243.394,59.183 244.453,61.755 244.453,64.642 L244.453,64.747 C244.453,70.837 240.217,74.406 234.393,75.456 L245.777,90.469 L240.641,90.469 ZM240.217,64.905 L240.217,64.800 C240.217,60.285 236.723,57.556 230.739,57.556 L219.302,57.556 L219.302,72.464 L230.686,72.464 C236.246,72.464 240.217,69.629 240.217,64.905 ZM197.641,80.758 L177.467,80.758 L173.073,90.469 L168.784,90.469 L185.675,53.461 L189.593,53.461 L206.484,90.469 L201.983,90.469 L197.641,80.758 ZM187.581,58.291 L179.109,77.031 L196.000,77.031 L187.581,58.291 Z" class="cls-3"/>
    <g style="fill: #434a54; filter: url(#color-overlay-1)">
      <path d="M436.000,53.000 L449.000,73.000 L436.000,91.000 L442.000,91.000 L455.000,73.000 L442.000,53.000 L436.000,53.000 Z" id="path-1" style="stroke: inherit; filter: none; fill: inherit" class="cls-4"/>
    </g>
    <use xlink:href="#path-1" style="stroke: #fff; filter: none; fill: none"/>
  </g>
</svg>
